<?xml version="1.0" encoding="UTF-8"?>
<svg width="340px" height="1180px" viewBox="0 0 340 1180" version="1.1" xmlns="http://www.w3.org/2000/svg" xmlns:xlink="http://www.w3.org/1999/xlink">
    <!-- Generator: Sketch 56.2 (81672) - https://sketch.com -->
    <title>Artboard</title>
    <desc>Created with Sketch.</desc>
    <defs>
        <rect id="path-1" x="0" y="0" width="296" height="315"></rect>
        <rect id="path-2" x="7" y="0" width="282" height="300"></rect>
        <filter x="-2.5%" y="-1.7%" width="105.0%" height="104.7%" filterUnits="objectBoundingBox" id="filter-3">
            <feOffset dx="0" dy="2" in="SourceAlpha" result="shadowOffsetOuter1"></feOffset>
            <feGaussianBlur stdDeviation="2" in="shadowOffsetOuter1" result="shadowBlurOuter1"></feGaussianBlur>
            <feColorMatrix values="0 0 0 0 0   0 0 0 0 0   0 0 0 0 0  0 0 0 0.4 0" type="matrix" in="shadowBlurOuter1"></feColorMatrix>
        </filter>
        <path d="M49,0 L259,0 C286.061953,-4.97120007e-15 308,21.9380473 308,49 L308,443.300921 C307.999995,448.080714 304.617471,452.192231 299.927289,453.113436 C235.821807,465.704479 187.179377,472 154,472 C120.820622,472 72.1781914,465.704479 8.07270741,453.113436 C3.38252515,452.192228 2.81798715e-14,448.08071 0,443.300915 L0,49 C-3.31413338e-15,21.9380473 21.9380473,4.97120007e-15 49,0 Z" id="path-4"></path>
        <filter x="-2.3%" y="-1.1%" width="104.5%" height="103.0%" filterUnits="objectBoundingBox" id="filter-5">
            <feOffset dx="0" dy="2" in="SourceAlpha" result="shadowOffsetOuter1"></feOffset>
            <feGaussianBlur stdDeviation="2" in="shadowOffsetOuter1" result="shadowBlurOuter1"></feGaussianBlur>
            <feColorMatrix values="0 0 0 0 0   0 0 0 0 0   0 0 0 0 0  0 0 0 0.399284309 0" type="matrix" in="shadowBlurOuter1"></feColorMatrix>
        </filter>
        <path d="M5.97830811,1.20161774 C73.2185473,14.617263 123.892445,21.3250856 158,21.3250856 C192.107555,21.3250856 242.781451,14.6172632 310.021689,1.20161837 C312.729739,0.661310499 315.363052,2.41861562 315.903357,5.12666654 C315.967629,5.44880328 316,5.77648974 316,6.10497563 L316,384 C316,413.271092 292.271092,437 263,437 L53,437 C23.7289083,437 3.58467488e-15,413.271092 0,384 L0,6.10497274 C2.30203583e-06,3.34355026 2.23857752,1.10497504 5,1.10497504 C5.32848556,1.10497504 5.6561717,1.13734569 5.97830811,1.20161774 Z" id="path-6"></path>
        <filter x="-1.9%" y="-1.1%" width="103.8%" height="102.5%" filterUnits="objectBoundingBox" id="filter-7">
            <feOffset dx="0" dy="0" in="SourceAlpha" result="shadowOffsetOuter1"></feOffset>
            <feGaussianBlur stdDeviation="2" in="shadowOffsetOuter1" result="shadowBlurOuter1"></feGaussianBlur>
            <feColorMatrix values="0 0 0 0 0   0 0 0 0 0   0 0 0 0 0  0 0 0 0.4 0" type="matrix" in="shadowBlurOuter1"></feColorMatrix>
        </filter>
        <rect id="path-8" x="126" y="57" width="63" height="8" rx="4"></rect>
        <filter x="-11.1%" y="-75.0%" width="122.2%" height="275.0%" filterUnits="objectBoundingBox" id="filter-9">
            <feMorphology radius="0.5" operator="dilate" in="SourceAlpha" result="shadowSpreadOuter1"></feMorphology>
            <feOffset dx="0" dy="1" in="shadowSpreadOuter1" result="shadowOffsetOuter1"></feOffset>
            <feGaussianBlur stdDeviation="2" in="shadowOffsetOuter1" result="shadowBlurOuter1"></feGaussianBlur>
            <feComposite in="shadowBlurOuter1" in2="SourceAlpha" operator="out" result="shadowBlurOuter1"></feComposite>
            <feColorMatrix values="0 0 0 0 0   0 0 0 0 0   0 0 0 0 0  0 0 0 0.19301792 0" type="matrix" in="shadowBlurOuter1"></feColorMatrix>
        </filter>
    </defs>
    <g id="Artboard" stroke="none" stroke-width="1" fill="none" fill-rule="evenodd">
        <g id="Base" transform="translate(12.000000, 10.000000)">
            <g id="Torso" transform="translate(10.000000, 447.000000)">
                <g id="Rectangle">
                    <use fill="#F7D700" xlink:href="#path-1"></use>
                    <use fill-opacity="0.138002622" fill="#000000" xlink:href="#path-1"></use>
                </g>
                <g id="Rectangle">
                    <use fill="black" fill-opacity="1" filter="url(#filter-3)" xlink:href="#path-2"></use>
                    <use fill="#F7D700" fill-rule="evenodd" xlink:href="#path-2"></use>
                </g>
                <rect id="Rectangle" fill="#000000" opacity="0.796206" x="143" y="288" width="10" height="5" rx="2.5"></rect>
            </g>
            <g id="Screen" transform="translate(4.000000, 0.000000)">
                <path d="M49,0 L259,0 C286.061953,-4.97120007e-15 308,21.9380473 308,49 L308,439.777465 C307.999998,444.562821 304.60978,448.677488 299.912781,449.592822 C235.814468,462.084071 187.176874,468.329695 154,468.329695 C120.823125,468.329695 72.1855307,462.084071 8.08721585,449.592821 C3.39021766,448.677485 5.86037102e-16,444.562819 0,439.777463 L0,49 C-3.31413338e-15,21.9380473 21.9380473,4.97120007e-15 49,0 Z" id="Rectangle" stroke="#F7D700" stroke-width="6" fill="#000000"></path>
                <g id="Rectangle">
                    <use fill="black" fill-opacity="1" filter="url(#filter-5)" xlink:href="#path-4"></use>
                    <use fill="#060606" fill-rule="evenodd" xlink:href="#path-4"></use>
                </g>
                <rect id="Rectangle" fill="#000000" x="34" y="81" width="240" height="320"></rect>
                <rect id="Rectangle" stroke="#131313" stroke-width="3" fill="#090909" opacity="0.839750744" x="127.5" y="30.5" width="58" height="7" rx="3.5"></rect>
                <path d="M120.70755,68.8399585 L117,68.8399585 L117,56.210175 L123.412175,56.210175 L130.768563,65.6391279 L130.768563,56.210175 L134.476112,56.210175 L134.476112,68.8399585 L128.193875,68.8399585 L120.70755,59.25 L120.70755,68.8399585 M152.214988,64.9343667 C152.214988,66.690003 151.905063,67.2954613 151.39205,67.8758529 C150.605688,68.7396915 149.461275,69 147.256188,69 L140.925825,69 C138.720738,69 137.5744,68.7396915 136.789,67.8758529 C136.275987,67.2954613 135.966062,66.690003 135.966062,64.9343667 L135.966062,60.0656333 C135.966062,58.3109611 136.275987,57.7064669 136.789,57.1251112 C137.575363,56.2603085 138.720738,56 140.925825,56 L147.256188,56 C149.461275,56 150.605688,56.2603085 151.39205,57.1251112 C151.905063,57.7064669 152.214988,58.3109611 152.214988,60.0656333 L152.214988,64.9343667 M147.100263,65.8001335 C147.947263,65.8001335 148.245638,65.75 148.448725,65.5648917 C148.638338,65.3923168 148.722075,65.1696084 148.722075,64.4272471 L148.722075,60.5727529 C148.722075,59.8303916 148.638338,59.6096114 148.448725,59.4360724 C148.245638,59.25 147.947263,59.2008306 147.100263,59.2008306 L141.080787,59.2008306 C140.233788,59.2008306 139.935412,59.25 139.733287,59.4360724 C139.542712,59.6096114 139.458975,59.8303916 139.458975,60.5727529 L139.458975,64.4272471 C139.458975,65.1696084 139.542712,65.3923168 139.733287,65.5648917 C139.935412,65.75 140.233788,65.8001335 141.080787,65.8001335 L147.100263,65.8001335 L147.100263,65.8001335 M157.603063,56.210175 L157.603063,68.8399585 L153.729,68.8399585 L153.729,56.210175 L157.603063,56.210175 M164.148063,56.210175 L169.262788,56.210175 L162.359737,62.1172501 L170.1454,68.8399585 L164.672625,68.8399585 L157.603063,62.253189 L164.148063,56.210175 M170.859575,56.210175 L174.7346,56.210175 L174.7346,68.8399585 L170.859575,68.8399585 M189.506088,68.8399585 L188.35975,66.6398695 L180.862838,66.6398695 L179.729975,68.8389944 L175.449737,68.8389944 L182.317175,56.210175 L187.133525,56.210175 L194,68.8399585 L189.506088,68.8399585 M182.209375,63.896989 L187.026687,63.896989 L184.61755,59.3242361 L182.209375,63.896989" id="Shape" fill="#D4D4D4" fill-rule="nonzero" opacity="0.792992001"></path>
            </g>
            <g id="Cover" transform="translate(0.000000, 724.000000)">
                <g id="Rectangle">
                    <use fill="black" fill-opacity="1" filter="url(#filter-7)" xlink:href="#path-6"></use>
                    <use fill="#F7D700" fill-rule="evenodd" xlink:href="#path-6"></use>
                </g>
                <g id="Rectangle">
                    <use fill="black" fill-opacity="1" filter="url(#filter-9)" xlink:href="#path-8"></use>
                    <use stroke="#FFE32C" stroke-width="1" fill="#F7D700" fill-rule="evenodd" xlink:href="#path-8"></use>
                </g>
            </g>
        </g>
        <polygon id="*" fill="#000000" fill-rule="nonzero" points="77.103 701.756 84.159 699.404 84.894 701.756 77.838 704.059 82.297 710.037 80.484 711.458 75.878 705.333 71.517 711.458 69.557 710.037 74.016 704.059 66.862 701.609 67.548 699.404 74.751 701.756 74.751 694.308 77.103 694.308"></polygon>
        <path d="M156.506,702.342 C155.461995,702.342 154.638503,702.620997 154.0355,703.179 C153.432497,703.737003 152.978002,704.429996 152.672,705.258 C152.365998,706.086004 152.1725,706.967995 152.0915,707.904 C152.0105,708.840005 151.97,709.685996 151.97,710.442 C151.97,711.198004 152.0105,712.043995 152.0915,712.98 C152.1725,713.916005 152.365998,714.797996 152.672,715.626 C152.978002,716.454004 153.432497,717.146997 154.0355,717.705 C154.638503,718.263003 155.461995,718.542 156.506,718.542 C157.550005,718.542 158.373497,718.263003 158.9765,717.705 C159.579503,717.146997 160.033998,716.454004 160.34,715.626 C160.646002,714.797996 160.8395,713.916005 160.9205,712.98 C161.0015,712.043995 161.042,711.198004 161.042,710.442 C161.042,709.685996 161.0015,708.840005 160.9205,707.904 C160.8395,706.967995 160.646002,706.086004 160.34,705.258 C160.033998,704.429996 159.579503,703.737003 158.9765,703.179 C158.373497,702.620997 157.550005,702.342 156.506,702.342 Z M156.506,700.56 C157.874007,700.56 158.980996,700.874997 159.827,701.505 C160.673004,702.135003 161.329998,702.935995 161.798,703.908 C162.266002,704.880005 162.580999,705.946494 162.743,707.1075 C162.905001,708.268506 162.986,709.379995 162.986,710.442 C162.986,711.504005 162.905001,712.615494 162.743,713.7765 C162.580999,714.937506 162.266002,716.003995 161.798,716.976 C161.329998,717.948005 160.673004,718.748997 159.827,719.379 C158.980996,720.009003 157.874007,720.324 156.506,720.324 C155.137993,720.324 154.031004,720.009003 153.185,719.379 C152.338996,718.748997 151.682002,717.948005 151.214,716.976 C150.745998,716.003995 150.431001,714.937506 150.269,713.7765 C150.106999,712.615494 150.026,711.504005 150.026,710.442 C150.026,709.379995 150.106999,708.268506 150.269,707.1075 C150.431001,705.946494 150.745998,704.880005 151.214,703.908 C151.682002,702.935995 152.338996,702.135003 153.185,701.505 C154.031004,700.874997 155.137993,700.56 156.506,700.56 Z" id="0" fill="#000000" fill-rule="nonzero"></path>
        <path d="M230.974,708.054 L234.831,708.054 L235.469,703.356 L231.612,703.356 L230.974,708.054 Z M228.973,709.794 L226.015,709.794 L226.015,708.054 L229.205,708.054 L229.843,703.356 L226.711,703.356 L226.711,701.616 L230.104,701.616 L230.945,695.468 L232.714,695.468 L231.873,701.616 L235.73,701.616 L236.571,695.468 L238.34,695.468 L237.499,701.616 L240.109,701.616 L240.109,703.356 L237.238,703.356 L236.6,708.054 L239.355,708.054 L239.355,709.794 L236.368,709.794 L235.498,716 L233.729,716 L234.599,709.794 L230.742,709.794 L229.872,716 L228.103,716 L228.973,709.794 Z" id="#" fill="#000000" fill-rule="nonzero"></path>
        <polygon id="7" fill="#000000" fill-rule="nonzero" points="82.798 663.666 75.103 681 72.916 681 80.773 663.666 71.458 663.666 71.458 661.884 82.798 661.884"></polygon>
        <path d="M159.61,681.627 C159.61,681.068997 159.511001,680.551502 159.313,680.0745 C159.114999,679.597498 158.840502,679.183502 158.4895,678.8325 C158.138498,678.481498 157.706503,678.207001 157.1935,678.009 C156.680497,677.810999 156.118003,677.712 155.506,677.712 C154.875997,677.712 154.309003,677.810999 153.805,678.009 C153.300997,678.207001 152.873502,678.481498 152.5225,678.8325 C152.171498,679.183502 151.897001,679.597498 151.699,680.0745 C151.500999,680.551502 151.402,681.068997 151.402,681.627 C151.402,682.185003 151.500999,682.702498 151.699,683.1795 C151.897001,683.656502 152.171498,684.070498 152.5225,684.4215 C152.873502,684.772502 153.300997,685.046999 153.805,685.245 C154.309003,685.443001 154.875997,685.542 155.506,685.542 C156.118003,685.542 156.680497,685.443001 157.1935,685.245 C157.706503,685.046999 158.138498,684.772502 158.4895,684.4215 C158.840502,684.070498 159.114999,683.656502 159.313,683.1795 C159.511001,682.702498 159.61,682.185003 159.61,681.627 Z M158.908,672.717 C158.908,672.230998 158.822501,671.781002 158.6515,671.367 C158.480499,670.952998 158.242002,670.597501 157.936,670.3005 C157.629998,670.003499 157.270002,669.769501 156.856,669.5985 C156.441998,669.427499 155.992002,669.342 155.506,669.342 C155.019998,669.342 154.570002,669.427499 154.156,669.5985 C153.741998,669.769501 153.382002,670.003499 153.076,670.3005 C152.769998,670.597501 152.531501,670.952998 152.3605,671.367 C152.189499,671.781002 152.104,672.230998 152.104,672.717 C152.104,673.203002 152.189499,673.652998 152.3605,674.067 C152.531501,674.481002 152.769998,674.836499 153.076,675.1335 C153.382002,675.430501 153.741998,675.664499 154.156,675.8355 C154.570002,676.006501 155.019998,676.092 155.506,676.092 C155.992002,676.092 156.441998,676.006501 156.856,675.8355 C157.270002,675.664499 157.629998,675.430501 157.936,675.1335 C158.242002,674.836499 158.480499,674.481002 158.6515,674.067 C158.822501,673.652998 158.908,673.203002 158.908,672.717 Z M153.022,676.821 C152.607998,676.676999 152.225502,676.465501 151.8745,676.1865 C151.523498,675.907499 151.222001,675.579002 150.97,675.201 C150.717999,674.822998 150.520001,674.409002 150.376,673.959 C150.231999,673.508998 150.16,673.041002 150.16,672.555 C150.16,671.798996 150.303999,671.110503 150.592,670.4895 C150.880001,669.868497 151.266998,669.342002 151.753,668.91 C152.239002,668.477998 152.805997,668.145001 153.454,667.911 C154.102003,667.676999 154.785996,667.56 155.506,667.56 C156.226004,667.56 156.909997,667.676999 157.558,667.911 C158.206003,668.145001 158.772998,668.477998 159.259,668.91 C159.745002,669.342002 160.131999,669.868497 160.42,670.4895 C160.708001,671.110503 160.852,671.798996 160.852,672.555 C160.852,673.041002 160.780001,673.508998 160.636,673.959 C160.491999,674.409002 160.294001,674.822998 160.042,675.201 C159.789999,675.579002 159.488502,675.907499 159.1375,676.1865 C158.786498,676.465501 158.404002,676.676999 157.99,676.821 L157.99,676.875 C159.070005,677.163001 159.933997,677.756995 160.582,678.657 C161.230003,679.557004 161.554,680.636994 161.554,681.897 C161.554,682.725004 161.387502,683.471997 161.0545,684.138 C160.721498,684.804003 160.280503,685.375498 159.7315,685.8525 C159.182497,686.329502 158.543504,686.693999 157.8145,686.946 C157.085496,687.198001 156.316004,687.324 155.506,687.324 C154.695996,687.324 153.926504,687.198001 153.1975,686.946 C152.468496,686.693999 151.829503,686.329502 151.2805,685.8525 C150.731497,685.375498 150.290502,684.804003 149.9575,684.138 C149.624498,683.471997 149.458,682.725004 149.458,681.897 C149.458,680.636994 149.781997,679.557004 150.43,678.657 C151.078003,677.756995 151.941995,677.163001 153.022,676.875 L153.022,676.821 Z" id="8" fill="#000000" fill-rule="nonzero"></path>
        <path d="M237.772,670.473 C237.772,669.860997 237.668501,669.303003 237.4615,668.799 C237.254499,668.294997 236.962002,667.863002 236.584,667.503 C236.205998,667.142998 235.756003,666.859501 235.234,666.6525 C234.711997,666.445499 234.136003,666.342 233.506,666.342 C232.875997,666.342 232.300003,666.445499 231.778,666.6525 C231.255997,666.859501 230.806002,667.142998 230.428,667.503 C230.049998,667.863002 229.757501,668.294997 229.5505,668.799 C229.343499,669.303003 229.24,669.860997 229.24,670.473 C229.24,671.085003 229.343499,671.642997 229.5505,672.147 C229.757501,672.651003 230.049998,673.087498 230.428,673.4565 C230.806002,673.825502 231.255997,674.108999 231.778,674.307 C232.300003,674.505001 232.875997,674.604 233.506,674.604 C234.136003,674.604 234.711997,674.505001 235.234,674.307 C235.756003,674.108999 236.205998,673.825502 236.584,673.4565 C236.962002,673.087498 237.254499,672.651003 237.4615,672.147 C237.668501,671.642997 237.772,671.085003 237.772,670.473 Z M235.828,675.792 L235.774,675.738 C235.467998,675.954001 235.058503,676.115999 234.5455,676.224 C234.032497,676.332001 233.560002,676.386 233.128,676.386 C232.299996,676.386 231.530504,676.237501 230.8195,675.9405 C230.108496,675.643499 229.492003,675.234003 228.97,674.712 C228.447997,674.189997 228.038501,673.569004 227.7415,672.849 C227.444499,672.128996 227.296,671.337004 227.296,670.473 C227.296,669.590996 227.448998,668.790004 227.755,668.07 C228.061002,667.349996 228.492997,666.729003 229.051,666.207 C229.609003,665.684997 230.265996,665.280001 231.022,664.992 C231.778004,664.703999 232.605996,664.56 233.506,664.56 C234.406004,664.56 235.233996,664.703999 235.99,664.992 C236.746004,665.280001 237.402997,665.684997 237.961,666.207 C238.519003,666.729003 238.950998,667.349996 239.257,668.07 C239.563002,668.790004 239.716,669.590996 239.716,670.473 C239.716,671.535005 239.558502,672.461996 239.2435,673.254 C238.928498,674.046004 238.537002,674.828996 238.069,675.603 L232.912,684 L230.617,684 L235.828,675.792 Z" id="9" fill="#000000" fill-rule="nonzero"></path>
        <path d="M78.288,629.828 L78.234,629.828 L71.646,640.682 L78.288,640.682 L78.288,629.828 Z M80.232,640.682 L82.986,640.682 L82.986,642.464 L80.232,642.464 L80.232,647 L78.288,647 L78.288,642.464 L70.026,642.464 L70.026,640.25 L77.748,627.884 L80.232,627.884 L80.232,640.682 Z" id="4" fill="#000000" fill-rule="nonzero"></path>
        <path d="M160.555,636.666 L152.725,636.666 L152.617,642.417 C153.031002,642.254999 153.453998,642.138 153.886,642.066 C154.318002,641.994 154.749998,641.958 155.182,641.958 C156.082004,641.958 156.900996,642.110998 157.639,642.417 C158.377004,642.723002 159.011497,643.150497 159.5425,643.6995 C160.073503,644.248503 160.487499,644.896496 160.7845,645.6435 C161.081501,646.390504 161.23,647.204996 161.23,648.087 C161.23,649.005005 161.068002,649.846496 160.744,650.6115 C160.419998,651.376504 159.970003,652.033497 159.394,652.5825 C158.817997,653.131503 158.138504,653.558998 157.3555,653.865 C156.572496,654.171002 155.722005,654.324 154.804,654.324 C153.597994,654.324 152.509005,654.036003 151.537,653.46 C150.564995,652.884 149.818003,652.038006 149.296,650.922 L151.213,650.085 C151.573002,650.841004 152.076997,651.439498 152.725,651.8805 C153.373003,652.321502 154.119996,652.542 154.966,652.542 C155.578003,652.542 156.144997,652.429501 156.667,652.2045 C157.189003,651.979499 157.643498,651.678002 158.0305,651.3 C158.417502,650.921998 158.723499,650.472003 158.9485,649.95 C159.173501,649.427997 159.286,648.870003 159.286,648.276 C159.286,647.609997 159.169001,646.998003 158.935,646.44 C158.700999,645.881997 158.377002,645.400502 157.963,644.9955 C157.548998,644.590498 157.054003,644.280001 156.478,644.064 C155.901997,643.847999 155.272003,643.74 154.588,643.74 C153.903997,643.74 153.224503,643.834499 152.5495,644.0235 C151.874497,644.212501 151.231003,644.468998 150.619,644.793 L150.808,634.884 L160.555,634.884 L160.555,636.666 Z" id="5" fill="#000000" fill-rule="nonzero"></path>
        <path d="M228.24,644.411 C228.24,645.023003 228.343499,645.580997 228.5505,646.085 C228.757501,646.589003 229.049998,647.025498 229.428,647.3945 C229.806002,647.763502 230.255997,648.046999 230.778,648.245 C231.300003,648.443001 231.875997,648.542 232.506,648.542 C233.136003,648.542 233.711997,648.443001 234.234,648.245 C234.756003,648.046999 235.205998,647.763502 235.584,647.3945 C235.962002,647.025498 236.254499,646.589003 236.4615,646.085 C236.668501,645.580997 236.772,645.023003 236.772,644.411 C236.772,643.798997 236.668501,643.241003 236.4615,642.737 C236.254499,642.232997 235.962002,641.801002 235.584,641.441 C235.205998,641.080998 234.756003,640.797501 234.234,640.5905 C233.711997,640.383499 233.136003,640.28 232.506,640.28 C231.875997,640.28 231.300003,640.383499 230.778,640.5905 C230.255997,640.797501 229.806002,641.080998 229.428,641.441 C229.049998,641.801002 228.757501,642.232997 228.5505,642.737 C228.343499,643.241003 228.24,643.798997 228.24,644.411 Z M230.184,639.092 L230.238,639.146 C230.544002,638.929999 230.953497,638.768001 231.4665,638.66 C231.979503,638.551999 232.451998,638.498 232.884,638.498 C233.712004,638.498 234.481496,638.646499 235.1925,638.9435 C235.903504,639.240501 236.519997,639.649997 237.042,640.172 C237.564003,640.694003 237.973499,641.314996 238.2705,642.035 C238.567501,642.755004 238.716,643.546996 238.716,644.411 C238.716,645.293004 238.563002,646.093996 238.257,646.814 C237.950998,647.534004 237.519003,648.154997 236.961,648.677 C236.402997,649.199003 235.746004,649.603999 234.99,649.892 C234.233996,650.180001 233.406004,650.324 232.506,650.324 C231.605996,650.324 230.778004,650.180001 230.022,649.892 C229.265996,649.603999 228.609003,649.199003 228.051,648.677 C227.492997,648.154997 227.061002,647.534004 226.755,646.814 C226.448998,646.093996 226.296,645.293004 226.296,644.411 C226.296,643.348995 226.453498,642.422004 226.7685,641.63 C227.083502,640.837996 227.474998,640.055004 227.943,639.281 L233.1,630.884 L235.395,630.884 L230.184,639.092 Z" id="6" fill="#000000" fill-rule="nonzero"></path>
        <polygon id="1" fill="#000000" fill-rule="nonzero" points="80.396 612 78.452 612 78.452 595.314 75.023 598.338 73.808 596.88 78.668 592.884 80.396 592.884"></polygon>
        <path d="M162.446,619 L150.296,619 L150.296,616.759 L157.91,609.01 C158.198001,608.721999 158.485999,608.416002 158.774,608.092 C159.062001,607.767998 159.322999,607.426002 159.557,607.066 C159.791001,606.705998 159.979999,606.328002 160.124,605.932 C160.268001,605.535998 160.34,605.122002 160.34,604.69 C160.34,604.167997 160.245501,603.700002 160.0565,603.286 C159.867499,602.871998 159.602002,602.521001 159.26,602.233 C158.917998,601.944999 158.522002,601.724501 158.072,601.5715 C157.621998,601.418499 157.145003,601.342 156.641,601.342 C155.668995,601.342 154.841003,601.611997 154.157,602.152 C153.472997,602.692003 153.032001,603.420995 152.834,604.339 L150.782,604.123 C151.052001,602.700993 151.704495,601.585004 152.7395,600.775 C153.774505,599.964996 155.029993,599.56 156.506,599.56 C157.280004,599.56 158.013497,599.663499 158.7065,599.8705 C159.399503,600.077501 160.011497,600.387998 160.5425,600.802 C161.073503,601.216002 161.496498,601.733497 161.8115,602.3545 C162.126502,602.975503 162.284,603.699996 162.284,604.528 C162.284,605.266004 162.171501,605.940997 161.9465,606.553 C161.721499,607.165003 161.429002,607.740997 161.069,608.281 C160.708998,608.821003 160.299502,609.333998 159.8405,609.82 C159.381498,610.306002 158.909002,610.782998 158.423,611.251 L152.402,617.218 L162.446,617.218 L162.446,619 Z" id="2" fill="#000000" fill-rule="nonzero"></path>
        <path d="M230.508,605.092 L231.507,605.092 C232.065003,605.092 232.600497,605.029001 233.1135,604.903 C233.626503,604.776999 234.071998,604.574501 234.45,604.2955 C234.828002,604.016499 235.129499,603.652002 235.3545,603.202 C235.579501,602.751998 235.692,602.212003 235.692,601.582 C235.692,600.555995 235.381503,599.759503 234.7605,599.1925 C234.139497,598.625497 233.271006,598.342 232.155,598.342 C231.344996,598.342 230.634003,598.521998 230.022,598.882 C229.409997,599.242002 228.906002,599.763997 228.51,600.448 L226.809,599.584 C227.385003,598.557995 228.118496,597.797502 229.0095,597.3025 C229.900504,596.807498 230.930994,596.56 232.101,596.56 C232.857004,596.56 233.567997,596.667999 234.234,596.884 C234.900003,597.100001 235.484997,597.419498 235.989,597.8425 C236.493003,598.265502 236.893499,598.787497 237.1905,599.4085 C237.487501,600.029503 237.636,600.735996 237.636,601.528 C237.636,602.050003 237.550501,602.544998 237.3795,603.013 C237.208499,603.481002 236.974501,603.903998 236.6775,604.282 C236.380499,604.660002 236.034002,604.988499 235.638,605.2675 C235.241998,605.546501 234.828002,605.757999 234.396,605.902 L234.477,605.956 C235.017003,606.064001 235.511998,606.266499 235.962,606.5635 C236.412002,606.860501 236.798998,607.224998 237.123,607.657 C237.447002,608.089002 237.698999,608.574997 237.879,609.115 C238.059001,609.655003 238.149,610.221997 238.149,610.816 C238.149,611.698004 237.987002,612.480997 237.663,613.165 C237.338998,613.849003 236.898003,614.424998 236.34,614.893 C235.781997,615.361002 235.134004,615.716499 234.396,615.9595 C233.657996,616.202501 232.875004,616.324 232.047,616.324 C230.642993,616.324 229.419005,616.018003 228.375,615.406 C227.330995,614.793997 226.548003,613.813007 226.026,612.463 L228.078,611.842 C228.402002,612.760005 228.883497,613.439498 229.5225,613.8805 C230.161503,614.321502 231.056994,614.542 232.209,614.542 C232.749003,614.542 233.261998,614.452001 233.748,614.272 C234.234002,614.091999 234.661498,613.835502 235.0305,613.5025 C235.399502,613.169498 235.687499,612.769002 235.8945,612.301 C236.101501,611.832998 236.205,611.320003 236.205,610.762 C236.205,610.041996 236.070001,609.434502 235.8,608.9395 C235.529999,608.444498 235.170002,608.044002 234.72,607.738 C234.269998,607.431998 233.752503,607.211501 233.1675,607.0765 C232.582497,606.941499 231.975003,606.874 231.345,606.874 L230.508,606.874 L230.508,605.092 Z" id="3" fill="#000000" fill-rule="nonzero"></path>
        <rect id="Rectangle" fill="#000000" x="74" y="506" width="32" height="2" rx="1"></rect>
        <rect id="Rectangle" fill="#000000" x="235" y="506" width="32" height="2" rx="1"></rect>
        <path d="M104.083734,564.5 L104.083734,562.045936 C104.083734,558.179943 100.949727,555.045936 97.0837336,555.045936 L81,555.045936 C77.1340068,555.045936 74,558.179943 74,562.045936 L74,564.5" id="Line" stroke="#000000" stroke-width="1.5" stroke-linecap="round"></path>
        <g id="Group-4" transform="translate(237.000000, 555.000000)" stroke="#000000" stroke-linecap="round" stroke-width="1.5">
            <path d="M22.5,8.5 L7.5,8.5" id="Line-2"></path>
            <path d="M10.5,5.5 L7.5,8.5" id="Line-2"></path>
            <path d="M10.5,11.5 L7.5,8.5" id="Line-2"></path>
            <path d="M30.0837336,9.45406376 L30.0837336,7 C30.0837336,3.13400675 26.9497268,-4.33427356e-14 23.0837336,-4.17443857e-14 L7,-4.17443857e-14 C3.13400675,-4.19223927e-14 5.45936144e-14,3.13400675 5.5067062e-14,7 L5.5067062e-14,9.45406376" id="Line"></path>
        </g>
        <path d="M50,528 C103.555556,536.89997 143.722222,541.349956 170.5,541.349956 C197.277778,541.349956 237.444444,536.89997 291,528" id="Line-4" stroke="#000000" stroke-linecap="square"></path>
        <path d="M155,500.5 C140.916739,500.5 129.5,511.916739 129.5,526 L129.5,555 C129.5,569.083261 140.916739,580.5 155,580.5 L186,580.5 C200.083261,580.5 211.5,569.083261 211.5,555 L211.5,526 C211.5,511.916739 200.083261,500.5 186,500.5 L155,500.5 Z M157,511.5 L185,511.5 C193.560414,511.5 200.5,518.439586 200.5,527 L200.5,553 C200.5,561.560414 193.560414,568.5 185,568.5 L157,568.5 C148.439586,568.5 141.5,561.560414 141.5,553 L141.5,527 C141.5,518.439586 148.439586,511.5 157,511.5 Z" id="Shape" stroke="#000000" fill="#F7D700"></path>
        <rect id="Rectangle" fill="#F7D700" x="142" y="512" width="58" height="56" rx="15"></rect>
        <path d="M53.5457324,474.229216 C53.3652182,474.200721 53.1827494,474.186408 53,474.186408 C51.066998,474.186408 49.4999928,475.753415 49.5,477.686416 L49.5,710.690724 C49.5,712.372159 50.6956685,713.815989 52.3476381,714.129389 C104.4728,724.018309 143.694185,728.96202 170,728.96202 C196.305816,728.96202 235.527201,724.018309 287.652364,714.129389 C289.304324,713.815987 290.49999,712.372163 290.5,710.690735 L290.5,477.686407 C290.5,477.503658 290.485687,477.32119 290.457192,477.140677 C290.155794,475.231327 288.363628,473.927823 286.454276,474.229215 C234.959114,482.357925 196.144225,486.422802 170,486.422802 C143.855777,486.422802 105.04089,482.357926 53.5457324,474.229216 Z" id="Rectangle" stroke="#000000" opacity="0.703633"></path>
        <path d="M129.5,589.5 L129.5,725.178069" id="Line-3" stroke="#000000" stroke-linecap="square"></path>
        <path d="M210,589.839035 L210,725.517104" id="Line-3" stroke="#000000" stroke-linecap="square"></path>
        <path d="M50,578 C103.555556,586.89997 143.722222,591.349956 170.5,591.349956 C197.277778,591.349956 237.444444,586.89997 291,578" id="Line-4" stroke="#000000" stroke-linecap="square"></path>
        <path d="M50,614 C103.555556,622.89997 143.722222,627.349956 170.5,627.349956 C197.277778,627.349956 237.444444,622.89997 291,614" id="Line-4" stroke="#000000" stroke-linecap="square"></path>
        <path d="M50,648 C103.555556,656.89997 143.722222,661.349956 170.5,661.349956 C197.277778,661.349956 237.444444,656.89997 291,648" id="Line-4" stroke="#000000" stroke-linecap="square"></path>
        <path d="M50,682 C103.555556,690.89997 143.722222,695.349956 170.5,695.349956 C197.277778,695.349956 237.444444,690.89997 291,682" id="Line-4" stroke="#000000" stroke-linecap="square"></path>
        <g id="Group-3" transform="translate(93.000000, 605.000000)" stroke="#000000">
            <rect id="Rectangle" x="0.5" y="0.5" width="5" height="7" rx="2.5"></rect>
            <rect id="Rectangle" x="9.5" y="0.5" width="5" height="7" rx="2.5"></rect>
            <path d="M3,7.49421074 L12,7.49421074" id="Line-5" stroke-linecap="round"></path>
        </g>
        <g id="Group-5" transform="translate(102.000000, 704.000000)" stroke="#000000" stroke-linecap="square">
            <path d="M3.5,0 L3.5,7" id="Line-6"></path>
            <path d="M0,3.5 L7,3.5" id="Line-6"></path>
        </g>
        <path d="M169.98,613.176 C170.334668,612.849332 170.745331,612.604334 171.212,612.441 C171.678669,612.277666 172.145331,612.196 172.612,612.196 C173.097336,612.196 173.514998,612.256666 173.865,612.378 C174.215002,612.499334 174.501999,612.662666 174.726,612.868 C174.950001,613.073334 175.115666,613.308999 175.223,613.575 C175.330334,613.841001 175.384,614.118665 175.384,614.408 L175.384,617.796 C175.384,618.029335 175.388667,618.243999 175.398,618.44 C175.407333,618.636001 175.421333,618.822666 175.44,619 L174.32,619 C174.292,618.663998 174.278,618.328002 174.278,617.992 L174.25,617.992 C173.969999,618.421335 173.638669,618.724666 173.256,618.902 C172.873331,619.079334 172.430003,619.168 171.926,619.168 C171.617998,619.168 171.324001,619.126 171.044,619.042 C170.763999,618.958 170.519001,618.832001 170.309,618.664 C170.098999,618.495999 169.933334,618.288335 169.812,618.041 C169.690666,617.793665 169.63,617.506668 169.63,617.18 C169.63,616.750665 169.725666,616.391335 169.917,616.102 C170.108334,615.812665 170.369665,615.577001 170.701,615.395 C171.032335,615.212999 171.419664,615.082334 171.863,615.003 C172.306336,614.923666 172.779997,614.884 173.284,614.884 L174.208,614.884 L174.208,614.604 C174.208,614.435999 174.175334,614.268001 174.11,614.1 C174.044666,613.931999 173.946667,613.780334 173.816,613.645 C173.685333,613.509666 173.522001,613.402334 173.326,613.323 C173.13,613.243666 172.896668,613.204 172.626,613.204 C172.383332,613.204 172.171001,613.227333 171.989,613.274 C171.806999,613.320667 171.641334,613.379 171.492,613.449 C171.342666,613.519 171.207334,613.600666 171.086,613.694 C170.964666,613.787334 170.848001,613.876 170.736,613.96 L169.98,613.176 Z M173.536,615.808 C173.237332,615.808 172.931668,615.824333 172.619,615.857 C172.306332,615.889667 172.021668,615.952666 171.765,616.046 C171.508332,616.139334 171.298334,616.269999 171.135,616.438 C170.971666,616.606001 170.89,616.820665 170.89,617.082 C170.89,617.464669 171.018332,617.739999 171.275,617.908 C171.531668,618.076001 171.879331,618.16 172.318,618.16 C172.663335,618.16 172.957332,618.101667 173.2,617.985 C173.442668,617.868333 173.638666,617.716668 173.788,617.53 C173.937334,617.343332 174.044666,617.135668 174.11,616.907 C174.175334,616.678332 174.208,616.452001 174.208,616.228 L174.208,615.808 L173.536,615.808 Z M177.218,608.416 L178.478,608.416 L178.478,613.316 L178.506,613.316 C178.730001,612.970665 179.051998,612.697668 179.472,612.497 C179.892002,612.296332 180.339998,612.196 180.816,612.196 C181.329336,612.196 181.793665,612.284666 182.209,612.462 C182.624335,612.639334 182.978999,612.884332 183.273,613.197 C183.567001,613.509668 183.793333,613.878331 183.952,614.303 C184.110667,614.727669 184.19,615.187331 184.19,615.682 C184.19,616.176669 184.110667,616.633998 183.952,617.054 C183.793333,617.474002 183.567001,617.842665 183.273,618.16 C182.978999,618.477335 182.624335,618.724666 182.209,618.902 C181.793665,619.079334 181.329336,619.168 180.816,619.168 C180.367998,619.168 179.931669,619.070001 179.507,618.874 C179.082331,618.677999 178.748668,618.402668 178.506,618.048 L178.478,618.048 L178.478,619 L177.218,619 L177.218,608.416 Z M180.662,617.992 C180.998002,617.992 181.301332,617.933667 181.572,617.817 C181.842668,617.700333 182.071332,617.541668 182.258,617.341 C182.444668,617.140332 182.589333,616.897668 182.692,616.613 C182.794667,616.328332 182.846,616.018002 182.846,615.682 C182.846,615.345998 182.794667,615.035668 182.692,614.751 C182.589333,614.466332 182.444668,614.223668 182.258,614.023 C182.071332,613.822332 181.842668,613.663667 181.572,613.547 C181.301332,613.430333 180.998002,613.372 180.662,613.372 C180.325998,613.372 180.022668,613.430333 179.752,613.547 C179.481332,613.663667 179.252668,613.822332 179.066,614.023 C178.879332,614.223668 178.734667,614.466332 178.632,614.751 C178.529333,615.035668 178.478,615.345998 178.478,615.682 C178.478,616.018002 178.529333,616.328332 178.632,616.613 C178.734667,616.897668 178.879332,617.140332 179.066,617.341 C179.252668,617.541668 179.481332,617.700333 179.752,617.817 C180.022668,617.933667 180.325998,617.992 180.662,617.992 Z M190.518,614.128 C190.284665,613.885332 190.039668,613.701001 189.783,613.575 C189.526332,613.448999 189.220668,613.386 188.866,613.386 C188.520665,613.386 188.219668,613.448999 187.963,613.575 C187.706332,613.701001 187.491668,613.873666 187.319,614.093 C187.146332,614.312334 187.015667,614.564332 186.927,614.849 C186.838333,615.133668 186.794,615.429998 186.794,615.738 C186.794,616.046002 186.845333,616.337665 186.948,616.613 C187.050667,616.888335 187.195332,617.128666 187.382,617.334 C187.568668,617.539334 187.792665,617.700333 188.054,617.817 C188.315335,617.933667 188.609332,617.992 188.936,617.992 C189.290668,617.992 189.593999,617.929001 189.846,617.803 C190.098001,617.676999 190.331332,617.492668 190.546,617.25 L191.442,618.146 C191.115332,618.510002 190.735002,618.771333 190.301,618.93 C189.866998,619.088667 189.407336,619.168 188.922,619.168 C188.408664,619.168 187.939669,619.084001 187.515,618.916 C187.090331,618.747999 186.724002,618.512335 186.416,618.209 C186.107998,617.905665 185.870001,617.541669 185.702,617.117 C185.533999,616.692331 185.45,616.223336 185.45,615.71 C185.45,615.196664 185.533999,614.725335 185.702,614.296 C185.870001,613.866665 186.105665,613.498002 186.409,613.19 C186.712335,612.881998 187.076331,612.641668 187.501,612.469 C187.925669,612.296332 188.399331,612.21 188.922,612.21 C189.407336,612.21 189.871664,612.296332 190.315,612.469 C190.758336,612.641668 191.143332,612.905332 191.47,613.26 L190.518,614.128 Z" id="abc" fill="#000000" fill-rule="nonzero"></path>
        <path d="M97.602,644.944 C97.602,645.448003 97.5156675,645.907665 97.343,646.323 C97.1703325,646.738335 96.9253349,647.097665 96.608,647.401 C96.2906651,647.704335 95.9080022,647.939999 95.46,648.108 C95.0119978,648.276001 94.517336,648.36 93.976,648.36 C93.3413302,648.36 92.760336,648.271334 92.233,648.094 C91.705664,647.916666 91.2040024,647.608669 90.728,647.17 L91.582,646.106 C91.9086683,646.460668 92.2633314,646.728999 92.646,646.911 C93.0286686,647.093001 93.4626642,647.184 93.948,647.184 C94.414669,647.184 94.8019985,647.116334 95.11,646.981 C95.4180015,646.845666 95.6629991,646.670668 95.845,646.456 C96.0270009,646.241332 96.155333,645.996335 96.23,645.721 C96.304667,645.445665 96.342,645.168001 96.342,644.888 L96.342,643.908 L96.3,643.908 C96.0573321,644.309335 95.7283354,644.605666 95.313,644.797 C94.8976646,644.988334 94.4613356,645.084 94.004,645.084 C93.5186642,645.084 93.0683354,644.997668 92.653,644.825 C92.2376646,644.652332 91.8806682,644.414335 91.582,644.111 C91.2833318,643.807665 91.0500008,643.448335 90.882,643.033 C90.7139992,642.617665 90.63,642.167336 90.63,641.682 C90.63,641.196664 90.7093325,640.741669 90.868,640.317 C91.0266675,639.892331 91.2529985,639.521335 91.547,639.204 C91.8410015,638.886665 92.1956646,638.639334 92.611,638.462 C93.0263354,638.284666 93.4906641,638.196 94.004,638.196 C94.4520022,638.196 94.8883312,638.293999 95.313,638.49 C95.7376688,638.686001 96.0713321,638.961332 96.314,639.316 L96.342,639.316 L96.342,638.364 L97.602,638.364 L97.602,644.944 Z M94.158,639.372 C93.8219983,639.372 93.518668,639.430333 93.248,639.547 C92.977332,639.663667 92.7486676,639.822332 92.562,640.023 C92.3753324,640.223668 92.2306672,640.466332 92.128,640.751 C92.0253328,641.035668 91.974,641.345998 91.974,641.682 C91.974,642.354003 92.169998,642.892998 92.562,643.299 C92.954002,643.705002 93.4859966,643.908 94.158,643.908 C94.8300034,643.908 95.361998,643.705002 95.754,643.299 C96.146002,642.892998 96.342,642.354003 96.342,641.682 C96.342,641.345998 96.2906672,641.035668 96.188,640.751 C96.0853328,640.466332 95.9406676,640.223668 95.754,640.023 C95.5673324,639.822332 95.338668,639.663667 95.068,639.547 C94.797332,639.430333 94.4940017,639.372 94.158,639.372 Z M99.506,634.416 L100.766,634.416 L100.766,639.386 L100.794,639.386 C100.952667,639.031332 101.227998,638.744334 101.62,638.525 C102.012002,638.305666 102.464664,638.196 102.978,638.196 C103.295335,638.196 103.600999,638.245 103.895,638.343 C104.189001,638.441 104.445666,638.592666 104.665,638.798 C104.884334,639.003334 105.059333,639.266998 105.19,639.589 C105.320667,639.911002 105.386,640.291331 105.386,640.73 L105.386,645 L104.126,645 L104.126,641.08 C104.126,640.771998 104.084,640.508334 104,640.289 C103.916,640.069666 103.804001,639.892334 103.664,639.757 C103.523999,639.621666 103.363001,639.523667 103.181,639.463 C102.998999,639.402333 102.810001,639.372 102.614,639.372 C102.352665,639.372 102.110001,639.414 101.886,639.498 C101.661999,639.582 101.466001,639.714999 101.298,639.897 C101.129999,640.079001 100.999334,640.309999 100.906,640.59 C100.812666,640.870001 100.766,641.201331 100.766,641.584 L100.766,645 L99.506,645 L99.506,634.416 Z M107.388,638.364 L108.648,638.364 L108.648,645 L107.388,645 L107.388,638.364 Z M107.094,635.984 C107.094,635.731999 107.184999,635.515001 107.367,635.333 C107.549001,635.150999 107.765999,635.06 108.018,635.06 C108.270001,635.06 108.486999,635.150999 108.669,635.333 C108.851001,635.515001 108.942,635.731999 108.942,635.984 C108.942,636.236001 108.851001,636.452999 108.669,636.635 C108.486999,636.817001 108.270001,636.908 108.018,636.908 C107.765999,636.908 107.549001,636.817001 107.367,636.635 C107.184999,636.452999 107.094,636.236001 107.094,635.984 Z" id="ghi" fill="#000000" fill-rule="nonzero"></path>
        <path d="M174.31,645.364 L174.31,652.952 C174.31,653.120001 174.298333,653.341665 174.275,653.617 C174.251667,653.892335 174.177001,654.158332 174.051,654.415 C173.924999,654.671668 173.724335,654.893332 173.449,655.08 C173.173665,655.266668 172.784003,655.36 172.28,655.36 C172.139999,655.36 172.002334,655.350667 171.867,655.332 C171.731666,655.313333 171.598667,655.280667 171.468,655.234 L171.608,654.072 C171.682667,654.1 171.766666,654.125667 171.86,654.149 C171.953334,654.172333 172.042,654.184 172.126,654.184 C172.471335,654.184 172.711666,654.074334 172.847,653.855 C172.982334,653.635666 173.05,653.316002 173.05,652.896 L173.05,645.364 L174.31,645.364 Z M172.756,642.984 C172.756,642.731999 172.846999,642.515001 173.029,642.333 C173.211001,642.150999 173.427999,642.06 173.68,642.06 C173.932001,642.06 174.148999,642.150999 174.331,642.333 C174.513001,642.515001 174.604,642.731999 174.604,642.984 C174.604,643.236001 174.513001,643.452999 174.331,643.635 C174.148999,643.817001 173.932001,643.908 173.68,643.908 C173.427999,643.908 173.211001,643.817001 173.029,643.635 C172.846999,643.452999 172.756,643.236001 172.756,642.984 Z M176.312,641.416 L177.572,641.416 L177.572,648.248 L180.428,645.378 L182.178,645.378 L179.084,648.388 L182.444,652 L180.652,652 L177.572,648.556 L177.572,652 L176.312,652 L176.312,641.416 Z M183.676,641.416 L184.936,641.416 L184.936,652 L183.676,652 L183.676,641.416 Z" id="jkl" fill="#000000" fill-rule="nonzero"></path>
        <path d="M246.952,633.364 L248.128,633.364 L248.128,634.4 L248.156,634.4 C248.184,634.306666 248.256333,634.190001 248.373,634.05 C248.489667,633.909999 248.638999,633.777001 248.821,633.651 C249.003001,633.524999 249.217665,633.417667 249.465,633.329 C249.712335,633.240333 249.985332,633.196 250.284,633.196 C250.778669,633.196 251.193998,633.298666 251.53,633.504 C251.866002,633.709334 252.141332,634.017331 252.356,634.428 C252.570668,634.017331 252.873998,633.709334 253.266,633.504 C253.658002,633.298666 254.054665,633.196 254.456,633.196 C254.969336,633.196 255.389332,633.279999 255.716,633.448 C256.042668,633.616001 256.299332,633.837665 256.486,634.113 C256.672668,634.388335 256.801,634.700998 256.871,635.051 C256.941,635.401002 256.976,635.762665 256.976,636.136 L256.976,640 L255.716,640 L255.716,636.304 C255.716,636.051999 255.699667,635.809334 255.667,635.576 C255.634333,635.342665 255.566667,635.137334 255.464,634.96 C255.361333,634.782666 255.216668,634.640334 255.03,634.533 C254.843332,634.425666 254.596002,634.372 254.288,634.372 C253.68133,634.372 253.247335,634.558665 252.986,634.932 C252.724665,635.305335 252.594,635.785997 252.594,636.374 L252.594,640 L251.334,640 L251.334,636.528 C251.334,636.210665 251.317667,635.921335 251.285,635.66 C251.252333,635.398665 251.187,635.172334 251.089,634.981 C250.991,634.789666 250.851001,634.640334 250.669,634.533 C250.486999,634.425666 250.242002,634.372 249.934,634.372 C249.709999,634.372 249.493001,634.416333 249.283,634.505 C249.072999,634.593667 248.888667,634.726666 248.73,634.904 C248.571333,635.081334 248.445334,635.307665 248.352,635.583 C248.258666,635.858335 248.212,636.182665 248.212,636.556 L248.212,640 L246.952,640 L246.952,633.364 Z M258.88,633.364 L260.14,633.364 L260.14,634.386 L260.168,634.386 C260.326667,634.031332 260.601998,633.744334 260.994,633.525 C261.386002,633.305666 261.838664,633.196 262.352,633.196 C262.669335,633.196 262.974999,633.245 263.269,633.343 C263.563001,633.441 263.819666,633.592666 264.039,633.798 C264.258334,634.003334 264.433333,634.266998 264.564,634.589 C264.694667,634.911002 264.76,635.291331 264.76,635.73 L264.76,640 L263.5,640 L263.5,636.08 C263.5,635.771998 263.458,635.508334 263.374,635.289 C263.29,635.069666 263.178001,634.892334 263.038,634.757 C262.897999,634.621666 262.737001,634.523667 262.555,634.463 C262.372999,634.402333 262.184001,634.372 261.988,634.372 C261.726665,634.372 261.484001,634.414 261.26,634.498 C261.035999,634.582 260.840001,634.714999 260.672,634.897 C260.503999,635.079001 260.373334,635.309999 260.28,635.59 C260.186666,635.870001 260.14,636.201331 260.14,636.584 L260.14,640 L258.88,640 L258.88,633.364 Z M267.686,636.682 C267.686,637.018002 267.737333,637.328332 267.84,637.613 C267.942667,637.897668 268.087332,638.140332 268.274,638.341 C268.460668,638.541668 268.689332,638.700333 268.96,638.817 C269.230668,638.933667 269.533998,638.992 269.87,638.992 C270.206002,638.992 270.509332,638.933667 270.78,638.817 C271.050668,638.700333 271.279332,638.541668 271.466,638.341 C271.652668,638.140332 271.797333,637.897668 271.9,637.613 C272.002667,637.328332 272.054,637.018002 272.054,636.682 C272.054,636.345998 272.002667,636.035668 271.9,635.751 C271.797333,635.466332 271.652668,635.223668 271.466,635.023 C271.279332,634.822332 271.050668,634.663667 270.78,634.547 C270.509332,634.430333 270.206002,634.372 269.87,634.372 C269.533998,634.372 269.230668,634.430333 268.96,634.547 C268.689332,634.663667 268.460668,634.822332 268.274,635.023 C268.087332,635.223668 267.942667,635.466332 267.84,635.751 C267.737333,636.035668 267.686,636.345998 267.686,636.682 Z M266.342,636.682 C266.342,636.196664 266.432999,635.744002 266.615,635.324 C266.797001,634.903998 267.046665,634.535335 267.364,634.218 C267.681335,633.900665 268.054665,633.651001 268.484,633.469 C268.913335,633.286999 269.375331,633.196 269.87,633.196 C270.364669,633.196 270.826665,633.286999 271.256,633.469 C271.685335,633.651001 272.058665,633.900665 272.376,634.218 C272.693335,634.535335 272.942999,634.903998 273.125,635.324 C273.307001,635.744002 273.398,636.196664 273.398,636.682 C273.398,637.167336 273.307001,637.622331 273.125,638.047 C272.942999,638.471669 272.693335,638.840332 272.376,639.153 C272.058665,639.465668 271.685335,639.712999 271.256,639.895 C270.826665,640.077001 270.364669,640.168 269.87,640.168 C269.375331,640.168 268.913335,640.077001 268.484,639.895 C268.054665,639.712999 267.681335,639.465668 267.364,639.153 C267.046665,638.840332 266.797001,638.471669 266.615,638.047 C266.432999,637.622331 266.342,637.167336 266.342,636.682 Z" id="mno" fill="#000000" fill-rule="nonzero"></path>
        <path d="M247.154,666.364 L248.568,666.364 L250.066,671.32 L250.094,671.32 L251.676,666.364 L253.006,666.364 L254.686,671.32 L254.714,671.32 L256.142,666.364 L257.472,666.364 L255.33,673 L254.056,673 L252.306,668.044 L252.278,668.044 L250.696,673 L249.338,673 L247.154,666.364 Z M260.398,669.458 L258.046,666.364 L259.67,666.364 L261.28,668.716 L262.862,666.364 L264.388,666.364 L262.12,669.458 L264.808,673 L263.184,673 L261.224,670.214 L259.264,673 L257.71,673 L260.398,669.458 Z M265.046,666.364 L266.502,666.364 L268.476,671.544 L268.504,671.544 L270.38,666.364 L271.738,666.364 L268.588,674.428 C268.475999,674.717335 268.359334,674.980999 268.238,675.219 C268.116666,675.457001 267.972001,675.659999 267.804,675.828 C267.635999,675.996001 267.433001,676.126666 267.195,676.22 C266.956999,676.313334 266.665335,676.36 266.32,676.36 C266.133332,676.36 265.944334,676.348333 265.753,676.325 C265.561666,676.301667 265.377334,676.252667 265.2,676.178 L265.354,675.03 C265.606001,675.132667 265.857999,675.184 266.11,675.184 C266.306001,675.184 266.471666,675.158334 266.607,675.107 C266.742334,675.055666 266.859,674.981 266.957,674.883 C267.055,674.785 267.136666,674.670667 267.202,674.54 C267.267334,674.409333 267.332666,674.260001 267.398,674.092 L267.804,673.042 L265.046,666.364 Z M272.382,671.866 L276.148,667.456 L272.508,667.456 L272.508,666.364 L277.688,666.364 L277.688,667.484 L273.894,671.908 L277.884,671.908 L277.884,673 L272.382,673 L272.382,671.866 Z" id="wxyz" fill="#000000" fill-rule="nonzero"></path>
        <path d="M173.508,678.456 L171.702,678.456 L171.702,681.466 C171.702,681.652668 171.706667,681.836999 171.716,682.019 C171.725333,682.201001 171.760333,682.364333 171.821,682.509 C171.881667,682.653667 171.974999,682.770333 172.101,682.859 C172.227001,682.947667 172.411332,682.992 172.654,682.992 C172.803334,682.992 172.957333,682.978 173.116,682.95 C173.274667,682.922 173.419333,682.870667 173.55,682.796 L173.55,683.944 C173.400666,684.028 173.207001,684.086333 172.969,684.119 C172.730999,684.151667 172.546667,684.168 172.416,684.168 C171.930664,684.168 171.555001,684.100334 171.289,683.965 C171.022999,683.829666 170.827001,683.654668 170.701,683.44 C170.574999,683.225332 170.500333,682.985001 170.477,682.719 C170.453667,682.452999 170.442,682.184668 170.442,681.914 L170.442,678.456 L168.986,678.456 L168.986,677.364 L170.442,677.364 L170.442,675.502 L171.702,675.502 L171.702,677.364 L173.508,677.364 L173.508,678.456 Z M181.012,684 L179.752,684 L179.752,682.978 L179.724,682.978 C179.565333,683.332668 179.290002,683.619666 178.898,683.839 C178.505998,684.058334 178.053336,684.168 177.54,684.168 C177.213332,684.168 176.905335,684.119 176.616,684.021 C176.326665,683.923 176.072334,683.771334 175.853,683.566 C175.633666,683.360666 175.458667,683.097002 175.328,682.775 C175.197333,682.452998 175.132,682.072669 175.132,681.634 L175.132,677.364 L176.392,677.364 L176.392,681.284 C176.392,681.592002 176.434,681.855666 176.518,682.075 C176.602,682.294334 176.713999,682.471666 176.854,682.607 C176.994001,682.742334 177.154999,682.840333 177.337,682.901 C177.519001,682.961667 177.707999,682.992 177.904,682.992 C178.165335,682.992 178.407999,682.95 178.632,682.866 C178.856001,682.782 179.051999,682.649001 179.22,682.467 C179.388001,682.284999 179.518666,682.054001 179.612,681.774 C179.705334,681.493999 179.752,681.162669 179.752,680.78 L179.752,677.364 L181.012,677.364 L181.012,684 Z M182.118,677.364 L183.574,677.364 L185.562,682.446 L187.466,677.364 L188.81,677.364 L186.206,684 L184.82,684 L182.118,677.364 Z" id="tuv" fill="#000000" fill-rule="nonzero"></path>
        <path d="M90.952,671.364 L92.212,671.364 L92.212,672.316 L92.24,672.316 C92.4826679,671.961332 92.8163312,671.686001 93.241,671.49 C93.6656688,671.293999 94.1019978,671.196 94.55,671.196 C95.0633359,671.196 95.5276646,671.284666 95.943,671.462 C96.3583354,671.639334 96.7129985,671.886665 97.007,672.204 C97.3010015,672.521335 97.5273325,672.892331 97.686,673.317 C97.8446675,673.741669 97.924,674.196664 97.924,674.682 C97.924,675.176669 97.8446675,675.636331 97.686,676.061 C97.5273325,676.485669 97.3010015,676.854332 97.007,677.167 C96.7129985,677.479668 96.3583354,677.724666 95.943,677.902 C95.5276646,678.079334 95.0633359,678.168 94.55,678.168 C94.0739976,678.168 93.6260021,678.067668 93.206,677.867 C92.7859979,677.666332 92.4640011,677.393335 92.24,677.048 L92.212,677.048 L92.212,681.948 L90.952,681.948 L90.952,671.364 Z M94.396,672.372 C94.0599983,672.372 93.756668,672.430333 93.486,672.547 C93.215332,672.663667 92.9866676,672.822332 92.8,673.023 C92.6133324,673.223668 92.4686672,673.466332 92.366,673.751 C92.2633328,674.035668 92.212,674.345998 92.212,674.682 C92.212,675.018002 92.2633328,675.328332 92.366,675.613 C92.4686672,675.897668 92.6133324,676.140332 92.8,676.341 C92.9866676,676.541668 93.215332,676.700333 93.486,676.817 C93.756668,676.933667 94.0599983,676.992 94.396,676.992 C94.7320017,676.992 95.035332,676.933667 95.306,676.817 C95.576668,676.700333 95.8053324,676.541668 95.992,676.341 C96.1786676,676.140332 96.3233328,675.897668 96.426,675.613 C96.5286672,675.328332 96.58,675.018002 96.58,674.682 C96.58,674.345998 96.5286672,674.035668 96.426,673.751 C96.3233328,673.466332 96.1786676,673.223668 95.992,673.023 C95.8053324,672.822332 95.576668,672.663667 95.306,672.547 C95.035332,672.430333 94.7320017,672.372 94.396,672.372 Z M106.156,681.192 L104.896,681.192 L104.896,677.048 L104.868,677.048 C104.643999,677.393335 104.322002,677.666332 103.902,677.867 C103.481998,678.067668 103.034002,678.168 102.558,678.168 C102.044664,678.168 101.580335,678.079334 101.165,677.902 C100.749665,677.724666 100.395001,677.479668 100.101,677.167 C99.8069985,676.854332 99.5806675,676.485669 99.422,676.061 C99.2633325,675.636331 99.184,675.176669 99.184,674.682 C99.184,674.196664 99.2633325,673.741669 99.422,673.317 C99.5806675,672.892331 99.8069985,672.521335 100.101,672.204 C100.395001,671.886665 100.749665,671.639334 101.165,671.462 C101.580335,671.284666 102.044664,671.196 102.558,671.196 C103.006002,671.196 103.442331,671.293999 103.867,671.49 C104.291669,671.686001 104.625332,671.961332 104.868,672.316 L104.896,672.316 L104.896,671.364 L106.156,671.364 L106.156,681.192 Z M102.712,672.372 C102.375998,672.372 102.072668,672.430333 101.802,672.547 C101.531332,672.663667 101.302668,672.822332 101.116,673.023 C100.929332,673.223668 100.784667,673.466332 100.682,673.751 C100.579333,674.035668 100.528,674.345998 100.528,674.682 C100.528,675.018002 100.579333,675.328332 100.682,675.613 C100.784667,675.897668 100.929332,676.140332 101.116,676.341 C101.302668,676.541668 101.531332,676.700333 101.802,676.817 C102.072668,676.933667 102.375998,676.992 102.712,676.992 C103.048002,676.992 103.351332,676.933667 103.622,676.817 C103.892668,676.700333 104.121332,676.541668 104.308,676.341 C104.494668,676.140332 104.639333,675.897668 104.742,675.613 C104.844667,675.328332 104.896,675.018002 104.896,674.682 C104.896,674.345998 104.844667,674.035668 104.742,673.751 C104.639333,673.466332 104.494668,673.223668 104.308,673.023 C104.121332,672.822332 103.892668,672.663667 103.622,672.547 C103.351332,672.430333 103.048002,672.372 102.712,672.372 Z M108.06,671.364 L109.32,671.364 L109.32,672.386 L109.348,672.386 C109.432,672.208666 109.543999,672.047667 109.684,671.903 C109.824001,671.758333 109.980332,671.634667 110.153,671.532 C110.325668,671.429333 110.514666,671.347667 110.72,671.287 C110.925334,671.226333 111.130666,671.196 111.336,671.196 C111.541334,671.196 111.727999,671.224 111.896,671.28 L111.84,672.638 C111.737333,672.61 111.634667,672.586667 111.532,672.568 C111.429333,672.549333 111.326667,672.54 111.224,672.54 C110.607997,672.54 110.136668,672.712665 109.81,673.058 C109.483332,673.403335 109.32,673.939996 109.32,674.668 L109.32,678 L108.06,678 L108.06,671.364 Z M116.768,673.03 C116.618666,672.843332 116.434334,672.687001 116.215,672.561 C115.995666,672.434999 115.727335,672.372 115.41,672.372 C115.111332,672.372 114.852334,672.434999 114.633,672.561 C114.413666,672.687001 114.304,672.871332 114.304,673.114 C114.304,673.310001 114.366999,673.468666 114.493,673.59 C114.619001,673.711334 114.768332,673.809333 114.941,673.884 C115.113668,673.958667 115.297999,674.014666 115.494,674.052 C115.690001,674.089334 115.857999,674.122 115.998,674.15 C116.268668,674.215334 116.522999,674.294666 116.761,674.388 C116.999001,674.481334 117.204332,674.602666 117.377,674.752 C117.549668,674.901334 117.685,675.083332 117.783,675.298 C117.881,675.512668 117.93,675.773998 117.93,676.082 C117.93,676.455335 117.850667,676.774999 117.692,677.041 C117.533333,677.307001 117.328001,677.523999 117.076,677.692 C116.823999,677.860001 116.537002,677.981333 116.215,678.056 C115.892998,678.130667 115.568668,678.168 115.242,678.168 C114.691331,678.168 114.208335,678.084001 113.793,677.916 C113.377665,677.747999 113.006668,677.440002 112.68,676.992 L113.632,676.208 C113.837334,676.413334 114.065999,676.595333 114.318,676.754 C114.570001,676.912667 114.877998,676.992 115.242,676.992 C115.400667,676.992 115.561666,676.975667 115.725,676.943 C115.888334,676.910333 116.032999,676.859 116.159,676.789 C116.285001,676.719 116.387666,676.630334 116.467,676.523 C116.546334,676.415666 116.586,676.292001 116.586,676.152 C116.586,675.965332 116.527667,675.811334 116.411,675.69 C116.294333,675.568666 116.154334,675.473 115.991,675.403 C115.827666,675.333 115.655001,675.277 115.473,675.235 C115.290999,675.193 115.130001,675.158 114.99,675.13 C114.719332,675.064666 114.462668,674.99 114.22,674.906 C113.977332,674.822 113.762668,674.710001 113.576,674.57 C113.389332,674.429999 113.240001,674.252668 113.128,674.038 C113.015999,673.823332 112.96,673.557335 112.96,673.24 C112.96,672.894665 113.032333,672.593668 113.177,672.337 C113.321667,672.080332 113.512999,671.868001 113.751,671.7 C113.989001,671.531999 114.259665,671.406 114.563,671.322 C114.866335,671.238 115.171998,671.196 115.48,671.196 C115.928002,671.196 116.357331,671.279999 116.768,671.448 C117.178669,671.616001 117.505332,671.895998 117.748,672.288 L116.768,673.03 Z" id="pqrs" fill="#000000" fill-rule="nonzero"></path>
        <polyline id="Line-7" stroke="#000000" stroke-linecap="square" points="173 717 173 720.231546 186.317801 720.231546 186.317801 717"></polyline>
        <path d="M254.602,610 L253.342,610 L253.342,609.048 L253.314,609.048 C253.071332,609.402668 252.737669,609.677999 252.313,609.874 C251.888331,610.070001 251.452002,610.168 251.004,610.168 C250.490664,610.168 250.026335,610.079334 249.611,609.902 C249.195665,609.724666 248.841001,609.477335 248.547,609.16 C248.252999,608.842665 248.026667,608.474002 247.868,608.054 C247.709333,607.633998 247.63,607.176669 247.63,606.682 C247.63,606.187331 247.709333,605.727669 247.868,605.303 C248.026667,604.878331 248.252999,604.509668 248.547,604.197 C248.841001,603.884332 249.195665,603.639334 249.611,603.462 C250.026335,603.284666 250.490664,603.196 251.004,603.196 C251.480002,603.196 251.927998,603.296332 252.348,603.497 C252.768002,603.697668 253.089999,603.970665 253.314,604.316 L253.342,604.316 L253.342,599.416 L254.602,599.416 L254.602,610 Z M251.158,608.992 C251.494002,608.992 251.797332,608.933667 252.068,608.817 C252.338668,608.700333 252.567332,608.541668 252.754,608.341 C252.940668,608.140332 253.085333,607.897668 253.188,607.613 C253.290667,607.328332 253.342,607.018002 253.342,606.682 C253.342,606.345998 253.290667,606.035668 253.188,605.751 C253.085333,605.466332 252.940668,605.223668 252.754,605.023 C252.567332,604.822332 252.338668,604.663667 252.068,604.547 C251.797332,604.430333 251.494002,604.372 251.158,604.372 C250.821998,604.372 250.518668,604.430333 250.248,604.547 C249.977332,604.663667 249.748668,604.822332 249.562,605.023 C249.375332,605.223668 249.230667,605.466332 249.128,605.751 C249.025333,606.035668 248.974,606.345998 248.974,606.682 C248.974,607.018002 249.025333,607.328332 249.128,607.613 C249.230667,607.897668 249.375332,608.140332 249.562,608.341 C249.748668,608.541668 249.977332,608.700333 250.248,608.817 C250.518668,608.933667 250.821998,608.992 251.158,608.992 Z M257.458,607.144 C257.458,607.433335 257.520999,607.696999 257.647,607.935 C257.773001,608.173001 257.938666,608.375999 258.144,608.544 C258.349334,608.712001 258.587332,608.842666 258.858,608.936 C259.128668,609.029334 259.408665,609.076 259.698,609.076 C260.090002,609.076 260.430665,608.985001 260.72,608.803 C261.009335,608.620999 261.275332,608.380668 261.518,608.082 L262.47,608.81 C261.769996,609.715338 260.790006,610.168 259.53,610.168 C259.007331,610.168 258.533669,610.079334 258.109,609.902 C257.684331,609.724666 257.325001,609.479668 257.031,609.167 C256.736999,608.854332 256.510667,608.485669 256.352,608.061 C256.193333,607.636331 256.114,607.176669 256.114,606.682 C256.114,606.187331 256.200332,605.727669 256.373,605.303 C256.545668,604.878331 256.783665,604.509668 257.087,604.197 C257.390335,603.884332 257.751998,603.639334 258.172,603.462 C258.592002,603.284666 259.049331,603.196 259.544,603.196 C260.132003,603.196 260.628998,603.298666 261.035,603.504 C261.441002,603.709334 261.774665,603.977665 262.036,604.309 C262.297335,604.640335 262.486333,605.013665 262.603,605.429 C262.719667,605.844335 262.778,606.266665 262.778,606.696 L262.778,607.144 L257.458,607.144 Z M261.434,606.136 C261.424667,605.855999 261.380334,605.599335 261.301,605.366 C261.221666,605.132666 261.102667,604.929668 260.944,604.757 C260.785333,604.584332 260.587001,604.449 260.349,604.351 C260.110999,604.253 259.833335,604.204 259.516,604.204 C259.207998,604.204 258.925668,604.262333 258.669,604.379 C258.412332,604.495667 258.195334,604.647332 258.018,604.834 C257.840666,605.020668 257.703,605.228332 257.605,605.457 C257.507,605.685668 257.458,605.911999 257.458,606.136 L261.434,606.136 Z M264.78,604.456 L263.352,604.456 L263.352,603.364 L264.78,603.364 L264.78,601.88 C264.78,600.993329 264.950332,600.333002 265.291,599.899 C265.631668,599.464998 266.217329,599.248 267.048,599.248 C267.188001,599.248 267.334999,599.252667 267.489,599.262 C267.643001,599.271333 267.808666,599.299333 267.986,599.346 L267.846,600.466 C267.724666,600.419333 267.608001,600.386667 267.496,600.368 C267.383999,600.349333 267.262667,600.34 267.132,600.34 C266.898665,600.34 266.712001,600.375 266.572,600.445 C266.431999,600.515 266.322334,600.615333 266.243,600.746 C266.163666,600.876667 266.112333,601.032999 266.089,601.215 C266.065667,601.397001 266.054,601.604666 266.054,601.838 L266.054,603.364 L267.552,603.364 L267.552,604.456 L266.04,604.456 L266.04,610 L264.78,610 L264.78,604.456 Z" id="def" fill="#000000" fill-rule="nonzero"></path>
        <g id="Group-22" transform="translate(263.500000, 700.000000)">
            <path d="M2.5,9.88544376 C3.88071187,9.88544376 5.09141276,9.05997297 5.09141276,8.23154585 C5.09141276,7.40311872 3.88071187,6.5 2.5,6.5 C1.11928813,6.5 -2.39808173e-14,7.17157288 -2.39808173e-14,8 C-2.39808173e-14,8.82842712 1.11928813,9.88544376 2.5,9.88544376 Z" id="Oval" fill="#000000"></path>
            <path d="M0.5,1 L8.5,7" id="Line-8" stroke="#000000" stroke-linecap="square"></path>
            <polyline id="Line-8" stroke="#000000" stroke-linecap="square" points="6.40838202 1.92316831 4.5 1.42108547e-14 4.5 8"></polyline>
        </g>
        <g id="Group-21" transform="translate(251.000000, 702.257667)" stroke="#000000" stroke-linecap="square">
            <polyline id="Line-7" points="2.5 3.47387846 2.5 8.47387846 6.5 8.47387846 6.5 3.47387846"></polyline>
            <polyline id="Line-7" transform="translate(4.500000, 4.500000) rotate(135.000000) translate(-4.500000, -4.500000) " points="2 2 2 7 7 7"></polyline>
        </g>
    </g>
</svg>